<svg aria-hidden="true" style="position:absolute;width:0;height:0" xmlns="http://www.w3.org/2000/svg" overflow="hidden"><defs>
<symbol id="icon-logo" viewBox="0 0 71 32"><path d="M42.3 16v.8c0 2.6-.8 5-2.1 7.3-.4.7-.9 1.5-1.2 2.3-.4.6-.8 1-1.5 1.4a4 4 0 00-1 .6 15.6 15.6 0 01-8.6 3.5l-1.2.1-1.1-.1A15.5 15.5 0 0112 22.5c-.6-1.2-1-2.4-1.2-3.8l-.1-.6a9 9 0 010-4.5c.3-1.2.5-2.3 1-3.4A16 16 0 0141 9.4c.8 1.7 1.3 3.6 1.3 5.5V16zm-1.1-3.6l-.3-2c-.5-2-1.6-3.5-3.1-4.8l-2.8-2-1-.5-3-.4c-1.6 0-3-.5-4.3-1.7-1-.8-2-.9-3-.1s-2.3 1.3-3.6 1.8L17.4 4c-.7.4-1.2 1-1.1 1.9 0 .5-.3.9-.7 1.2l-1.2.7c-1 .8-1.7 1.7-1.9 3-.1 1.1-.4 2.2-1.2 3A2 2 0 0011 15v2.4c0 .2 0 .5.2.6l.8 1.4a7 7 0 011.5 3.3c.2 1.2.8 2.2 1.8 3l4.3 3.4c.8.6 1.7 1.1 2.7 1.2s2.1.4 3 1l.7.2c1.4.1 2.6-.2 3.8-.8l1-.6c1-.4 2-.7 2.8-1.2.9-.7 1.8-1 2.9-1.1.4-.1.8-.3 1-.6l1-1.2c.4-.4.7-.8.8-1.4 0-.8.4-1.6.9-2.3.8-1.2 1.2-2.5 1.4-4v-1c-.6-1-.4-2-.5-3-.1-.6 0-1.2.2-1.9zM34.7 3l-.4-.4-.6-.4C32 1.1 30.2.7 28.3.4h-1.1c-.1 0-.3 0-.3.2v.2c.5.5 1 .9 1.6 1V2c1 .4 2.2.6 3.3.6l1.5.2 1.4.2zM20.4 30.3c-1-1-2-1.8-3-2.6-1-.6-1.8-1.3-2.6-2h-.5a13 13 0 006.1 4.6zM12.8 8.7l2-1.5c1-.7 1.4-1.4 1.2-2.8l-1.8 1.9-1.4 2.1v.3zm23 19.7c-.7 0-1.3 0-1.7.4-.8.7-1.6 1-2.6 1.3l-1.3.7-.1.3s.2.1.2 0c.9-.2 1.7-.4 2.5-.8l2.7-1.6.3-.3zm-24.3-9v1.1c.3 1 .5 1.9 1.1 2.6.2.3.3 1 .6.8.4-.1 0-.6 0-1-.1-1.3-.8-2.3-1.7-3.5zM17.7 3v.2l1.5-.6L23.7 1l-1.4.6.5-.4V1l-.1-.1a17.9 17.9 0 00-4.2 1.7l-.8.6zm24.2 14l.1-.1c.2-1.5 0-2.9-.2-4.3l-.1-.1h-.3l-.1.4a13.2 13.2 0 00.2 3.6v-.1c0 .2.2.4.4.6zm-30.7-3.9c.5-.2.6-.6.7-.9.1-.8.5-1.6.4-2.5-.6 1-1.1 2.1-1 3.4zm13 18c-1.2-.5-1.5-.6-2.6-.4.5.2.9.4 1.3.4s.9.6 1.3 0z"/><path d="M26.7 20.6a2 2 0 01-1.8-1c-.4-.7-1-1-1.6-1.4-.8-.5-1.4-1-1.6-2 0-.6 0-1.2.3-1.8a3 3 0 011-1c.5-.3 1-.6 1.1-1.1.3-.6.9-.7 1.4-.8l1.5-.3c.7-.1 1.3 0 1.8.4.4.5.8.7 1.3 1 .6.3.7.6.6 1.1-.1.4 0 .6.1 1 .2.2.3.6.4.9.4 1.1 0 2-1.1 2.6-.6.3-1.2.7-1.3 1.4 0 .3-.3.5-.5.6l-1.6.4zm3.5-4.7c0-2-1.5-3.6-3.5-3.6a3.5 3.5 0 00-3.6 3.5c0 1.8 1.5 3.5 3.5 3.5 2.4 0 3.5-1.7 3.6-3.4zm-7 1.9v-.5c-.3-1.1-.5-2.2 0-3.2.1-.1 0-.3 0-.4l-.3.1c-1 .8-1.4 2.8.2 4zm3.5-6l1 .3c.8.2 1.6.7 2.1 1.5.1.1.2.3.4.2.1-.1.2-.4.1-.6l-.4-.4c-.5-.1-.8-.5-1.1-.8-.6-.5-1.2-.7-2-.2zm0 7.8h-.8l-.4.1c.1.1.2.3.4.3.7.2 1.3.2 2 0l.4-.2v-.4h-.2l-1.4.2zm3.5-2c.5-.1.7-.4.7-.8a7 7 0 000-1c0-.2-.1-.2-.2-.3l-.3.3c.2.6-.2 1.1-.2 1.8zm4.4 2.7l-.3.1H34a17 17 0 01-1-1.3v-.4c.1 0 .4-.2.5 0 .4.3.7.8 1 1.3l.1.3zm-16.3 3.4h.8l.2.3-.1.3c-.7.2-1.4.2-2-.2v-.2l.1-.2h1zM39.2 9.6l.2.1c0 .1 0 .3-.2.4l-1.4.4-.5-.2c-.2-.2 0-.5.1-.5l1.8-.2zm-17 17l.6.2.8 1.2c.1.2 0 .4-.2.5 0 0-.3 0-.4-.2l-.8-1.2v-.6zM32.7 11v-.3h.3l.3.2.5 1 .2.3-.1.4h-.4c-.3-.5-.8-1-.8-1.6zm1.1-5c0 .5 0 .8-.2 1.2 0 .2-.1.3-.3.4l-.4.2v-.5l.2-1.2c.1-.3.3-.5.5-.4l.2.3zM27 9.1c.3 0 .5 0 .8.2.1 0 .3.1.2.2 0 .2 0 .3-.2.4a1 1 0 01-.6 0c-.3-.1-.6-.2-1 0-.1 0-.3 0-.4-.2 0-.3.2-.5.4-.5h.8zM32 23l-.2 1-.3.2-.2-.2a1.3 1.3 0 010-.6v-1c-.1-.2 0-.5.2-.5l.4.4.1.7zm-4-.1v.2l-1.3.9H26c-.2-.1-.3-.4 0-.5l1.4-1 .3.1.2.3zM22.7 4.2h.2l.5 2c0 .1-.2.2-.4.1-.4-.3-.7-1.5-.5-2l.2-.1zm6 1.7c-.2 0-.3-.1-.3-.2l.1-.3 1-1h.6c.3.1.1.4 0 .5l-.7.7c-.2.2-.5.2-.7.3zm-9.2 3.3l-.4.3-.2-.3-.5-1.6.1-.2h.3c.2 0 .4.2.4.4l.3 1.4zm-3.9 8.6c-.3.6-.5 1.2-1.1 1.5l-.5-.1c-.2-.2 0-.3.1-.4l.9-1.2.4-.1.2.3zm3.7 0l.3.2v.3c0 .2-.2.2-.4.3l-1 .6h-.5c-.2-.2-.1-.4 0-.5l1.6-.9zm18.3-2.7l-.5 1.2h-.3l-.2-.3.3-1.4.4-.3.3.3v.5zm-22-3.5c.5.5.4 1.2.5 1.8l-.3.4h-.3l-.2-2 .2-.2zm13.3 16h.3l1 .5.5.4c.1.1 0 .4-.2.4-.6-.2-1.3-.3-1.7-.8v-.4l.1-.1zm-7.6-15.8s.2.2.1.3l-.7 1.6-.2.1-.2-.2c-.1-.5.3-1.6.8-1.8h.2zm18 8.7c-.2 0-.3 0-.4-.2 0 0 0-.2.2-.3l1.2-.8h.4v.5c-.3.4-.8.8-1.5.8zm-2.5 4.2h-.5l-.1-.2v-.3l.3-.1 1.3-.4.4.1v.4l-.3.2-1 .3zM23 21.4l-.2.7-.3.1-.2-.3v-1.6l.3-.3.3.3v1zm21.4-17c0-1.1.3-2 .8-2.6.6-.6 1.3-.9 2.2-.9s1.5.3 2 .8c.6.5.8 1.3.8 2.5s-.2 2-.8 2.5a3 3 0 01-2.2 1c-.8 0-1.5-.3-2-.8l-.6-1-.2-1.5zm3-3.4c-.7 0-1.2.3-1.6.9-.4.5-.6 1.4-.6 2.5s.2 1.9.6 2.4c.3.5.8.7 1.5.7.6 0 1.1-.3 1.5-.8.5-.6.7-1.4.7-2.5s-.2-2-.6-2.4c-.4-.5-1-.8-1.6-.8zm4.5 6.6H51V1h.8v3h3V1h.8v6.6H55V4h-3v3.5zm7.8 0l.7-6.6h.3l2 6 2-6h.3l.8 6.6H65l-.6-5.3-1.7 5.3H62l-1.7-5.3-.7 5.3zM71 1c.2 0 .2.2.2.4V2l-1.8 3.4v2.3h-.8v-2L66.8 1h.8l1.8 4.2L71 2l.1-.5L71 1zM1.3 9.3h1.5l1.5.1A5.3 5.3 0 017 11c.4.5.7 1 .9 1.7s.3 1.6.3 2.6a7 7 0 01-.5 2.7c-.3.8-.7 1.4-1.3 1.8-1 .8-2.4 1.2-4 1.2H0V9.2h1.3zm0 11.5a9.6 9.6 0 002.5-.1c.3 0 .6-.2.8-.4l.9-.6.7-1c.5-1 .8-2.1.8-3.6 0-1-.2-2-.4-2.7-.3-.7-.6-1.3-1-1.7-.2-.3-.6-.6-1-.8a3.9 3.9 0 00-2.2-.5h-1v11.4zm43.4.1h-.2V9.3h.5L52 20V9.3h.1v11.6H51l-6.2-9.6v9.6zM62.4 9.3h.2v6.6c0 1.8-.4 3-1 3.9-.7.8-1.6 1.2-2.7 1.2-.7 0-1.3 0-1.8-.2-.5-.1-1-.3-1.4-.7-.9-.7-1.3-2-1.3-4.2V9.3h1.4v6.6c0 2 .3 3.4.9 4 .3.4.6.6 1 .8l1.2.1c1 0 1.9-.3 2.5-1.1.6-.8 1-2 1-3.8V9.3zm5.8 11.6H67V9.5h-3v-.2h7.2v.2h-2.9v11.4z"/></symbol>
<symbol id="icon-twitter" viewBox="0 0 40 32"><path d="M40.4 3.8c-1.4.6-3 1-4.7 1.3 1.7-1 3-2.6 3.6-4.4V.6c-1.5.9-3.3 1.6-5.2 2A8.4 8.4 0 0028 0a8.2 8.2 0 00-8.1 10c-6.9-.4-13-3.6-17-8.5a8 8 0 002.5 10.8c-1.4 0-2.7-.4-3.8-1 0 4 2.9 7.2 6.7 8a8.5 8.5 0 01-3.8.1c1 3.2 4.1 5.6 7.8 5.6A16.8 16.8 0 012 28.5l-2-.1C3.7 30.7 8 32 12.7 32A23.1 23.1 0 0036.3 8c1.6-1.2 3-2.6 4-4.2h.1z"/></symbol>
<symbol id="icon-rate5stars" viewBox="0 0 181 32"><path fill="var(--color1, #ab816c)" d="M14.7 3.9a1.3 1.3 0 012.6 0l2 6.2c.2.6.7 1 1.3 1H27c1.3 0 1.8 1.6.8 2.4l-5.3 3.8a1.3 1.3 0 00-.5 1.5l2 6.2c.4 1.3-1 2.3-2 1.5l-5.3-3.8a1.3 1.3 0 00-1.6 0L10 26.5c-1 .8-2.4-.2-2-1.5l2-6.2v-.4c0-.4-.2-.8-.5-1l-5.3-4c-1-.7-.5-2.3.8-2.3h6.5c.6 0 1.1-.4 1.3-1l2-6.2zm149.4 0a1.3 1.3 0 012.5 0l2 6.2c.2.6.7 1 1.3 1h6.5c1.3 0 1.9 1.6.8 2.4l-5.3 3.8a1.3 1.3 0 00-.5 1.5l2 6.2c.5 1.3-1 2.3-2 1.5l-5.3-3.8a1.3 1.3 0 00-1.6 0l-5.3 3.8c-1 .8-2.4-.2-2-1.5l2-6.2v-.4c0-.4-.1-.8-.5-1l-5.3-4c-1-.7-.5-2.3.8-2.3h6.6c.6 0 1-.4 1.2-1l2-6.2zm-37.4 0a1.3 1.3 0 012.6 0l2 6.2c.2.6.7 1 1.3 1h6.5c1.3 0 1.8 1.6.8 2.4l-5.3 3.8a1.3 1.3 0 00-.5 1.5l2 6.2c.4 1.3-1 2.3-2 1.5l-5.3-3.8a1.3 1.3 0 00-1.6 0l-5.3 3.8c-1 .8-2.4-.2-2-1.5l2-6.2v-.4c0-.4-.2-.8-.5-1l-5.3-4c-1-.7-.5-2.3.8-2.3h6.5c.6 0 1.1-.4 1.3-1l2-6.2zm-37.3 0a1.3 1.3 0 012.5 0l2 6.2c.2.6.7 1 1.3 1h6.6c1.3 0 1.8 1.6.8 2.4l-5.3 3.8a1.3 1.3 0 00-.5 1.5l2 6.2c.4 1.3-1 2.3-2 1.5l-5.3-3.8a1.3 1.3 0 00-1.6 0l-5.3 3.8c-1 .8-2.5-.2-2-1.5l2-6.2v-.4c0-.4-.2-.8-.5-1l-5.3-4c-1-.7-.5-2.3.8-2.3H86c.6 0 1-.4 1.3-1l2-6.2zm-37.3 0a1.3 1.3 0 012.5 0l2 6.2c.2.6.7 1 1.3 1h6.5c1.3 0 1.9 1.6.8 2.4L60 17.3a1.3 1.3 0 00-.5 1.5l2 6.2c.5 1.3-1 2.3-2 1.5l-5.3-3.8a1.3 1.3 0 00-1.6 0l-5.3 3.8c-1 .8-2.4-.2-2-1.5l2-6.2v-.4c0-.4-.1-.8-.5-1l-5.3-4c-1-.7-.5-2.3.8-2.3h6.6c.6 0 1-.4 1.2-1L52 4z"/></symbol>
<symbol id="icon-rate4stars" viewBox="0 0 181 32"><path fill="var(--color1, #ab816c)" d="M14.7 3.9a1.3 1.3 0 012.6 0l2 6.2c.2.6.7 1 1.3 1H27c1.3 0 1.8 1.6.8 2.4l-5.3 3.8a1.3 1.3 0 00-.5 1.5l2 6.2c.4 1.3-1 2.3-2 1.5l-5.3-3.8a1.3 1.3 0 00-1.6 0L10 26.5c-1 .8-2.4-.2-2-1.5l2-6.2v-.4c0-.4-.2-.8-.5-1l-5.3-4c-1-.7-.5-2.3.8-2.3h6.5c.6 0 1.1-.4 1.3-1l2-6.2z"/><path fill="none" stroke="var(--color1, #ab816c)" stroke-width="1.3" d="M164.7 4.1a.7.7 0 011.3 0h0l2 6.2a2 2 0 001.9 1.4s0 0 0 0h6.5a.7.7 0 01.4 1.2h0l-5.3 3.9a2 2 0 00-.7 2.2h0l2 6.2v.3a.7.7 0 01-1 .5h0l-5.3-3.9a2 2 0 00-2.3 0h0l-5.3 3.9-.4.1a.7.7 0 01-.7-.9h0l2-6.2.2-.6a2 2 0 00-.9-1.6h0l-5.3-3.9a.7.7 0 01.4-1.2h6.6s0 0 0 0a2 2 0 001.9-1.3h0l2-6.3z"/><path fill="var(--color1, #ab816c)" d="M126.7 3.9a1.3 1.3 0 012.6 0l2 6.2c.2.6.7 1 1.3 1h6.5c1.3 0 1.8 1.6.8 2.4l-5.3 3.8a1.3 1.3 0 00-.5 1.5l2 6.2c.4 1.3-1 2.3-2 1.5l-5.3-3.8a1.3 1.3 0 00-1.6 0l-5.3 3.8c-1 .8-2.4-.2-2-1.5l2-6.2v-.4c0-.4-.2-.8-.5-1l-5.3-4c-1-.7-.5-2.3.8-2.3h6.5c.6 0 1.1-.4 1.3-1l2-6.2zm-37.3 0a1.3 1.3 0 012.5 0l2 6.2c.2.6.7 1 1.3 1h6.6c1.3 0 1.8 1.6.8 2.4l-5.3 3.8a1.3 1.3 0 00-.5 1.5l2 6.2c.4 1.3-1 2.3-2 1.5l-5.3-3.8a1.3 1.3 0 00-1.6 0l-5.3 3.8c-1 .8-2.5-.2-2-1.5l2-6.2v-.4c0-.4-.2-.8-.5-1l-5.3-4c-1-.7-.5-2.3.8-2.3H86c.6 0 1-.4 1.3-1l2-6.2zm-37.3 0a1.3 1.3 0 012.5 0l2 6.2c.2.6.7 1 1.3 1h6.5c1.3 0 1.9 1.6.8 2.4L60 17.3a1.3 1.3 0 00-.5 1.5l2 6.2c.5 1.3-1 2.3-2 1.5l-5.3-3.8a1.3 1.3 0 00-1.6 0l-5.3 3.8c-1 .8-2.4-.2-2-1.5l2-6.2v-.4c0-.4-.1-.8-.5-1l-5.3-4c-1-.7-.5-2.3.8-2.3h6.6c.6 0 1-.4 1.2-1L52 4z"/></symbol>
<symbol id="icon-phone" viewBox="0 0 32 32"><path d="M29.4 21c-2 0-4-.3-5.8-1h.1c-.9-.2-2 0-2.5.6l-3.6 2.7a19.9 19.9 0 01-9-8.9l2.7-3.5a2.6 2.6 0 00.6-2.6c-.6-1.7-.9-3.7-.9-5.7C11 1.2 10 0 8.4 0H2.6A2.6 2.6 0 000 2.6 29.5 29.5 0 0029.4 32c1.4 0 2.6-1.2 2.6-2.6v-5.8c0-1.4-1.2-2.6-2.6-2.6z"/></symbol>
<symbol id="icon-people" viewBox="0 0 35 32"><path fill="var(--color2, #674d40)" d="M11.8 0a6.7 6.7 0 000 13.3c3.7 0 6.7-3 6.7-6.6 0-3.7-3-6.7-6.7-6.7zm0 12.2c-3 0-5.5-2.5-5.5-5.5C6.3 3.6 8.8 1 11.8 1a5.6 5.6 0 110 11.1zm13.7-9.4a5 5 0 000 10 5 5 0 000-10zm0 8.9a3.9 3.9 0 010-7.8c2.2 0 4 1.7 4 3.9 0 2.1-1.8 3.9-4 3.9z"/><path fill="var(--color2, #674d40)" d="M34.5 20.1a9 9 0 00-5.6-7s-1.5 1.2-3.4 1.1c-2 0-3.3-1-3.3-1s-1.6.6-2.8 1.8c-1.2-1-3.2-1.9-3.2-1.9s-1.8 1.4-4.4 1.3c-2.7 0-4.3-1.3-4.3-1.3s-6 2-7.2 9c0 0-1.4 3.6 1.7 9h19.7s1.3-2.4 1.6-3.8H33c2.4-3.7 1.5-7.2 1.5-7.2zM21 30.1H2.7c-2.3-4.6-1.3-7.9-1.3-7.9.6-3.5 2.8-6.4 6-7.8a8.8 8.8 0 009 0c3 1.4 5.3 4.3 5.9 7.8 0 0 1 4-1.3 7.8zm11.4-4h-8.9c.4-2 0-4 0-4-.5-2.6-1.7-4.7-3.3-6.4a8 8 0 011.9-1.3 7 7 0 006.8 0 8 8 0 014.5 5.9s.8 2.8-1 5.8z"/></symbol>
<symbol id="icon-menu" viewBox="0 0 60 32"><path d="M2 0h56a2 2 0 110 4H2a2 2 0 110-4zM2 14h56a2 2 0 110 4H2a2 2 0 110-4zM2 28h56a2 2 0 110 4H2a2 2 0 110-4z"/></symbol>
<symbol id="icon-location" viewBox="0 0 23 32"><path d="M11.7 1.2A11.7 11.7 0 0121.1 20l-8.6 11.6-.1.1a.9.9 0 01-1.4 0l-8.8-12a11.7 11.7 0 019.6-18.5zm0 18c3.5 0 6.4-2.8 6.4-6.3s-2.9-6.3-6.4-6.3a6.3 6.3 0 000 12.7z"/></symbol>
<symbol id="icon-instagram" viewBox="0 0 32 32"><path d="M16.3 32H16c-2.5 0-4.8 0-7-.2A8.8 8.8 0 01.5 25a21 21 0 01-.6-5v-4-4c0-1.6 0-3.3.5-5C1 5 2 3.4 3.5 2.3 5 1 6.9.3 8.9.2a111.5 111.5 0 0114.2 0A8.8 8.8 0 0131.5 7c.4 1.7.4 3.4.5 5v8.2-.2c0 1.6 0 3.3-.5 5-.5 2-1.5 3.6-3 4.7a9.5 9.5 0 01-5.4 2.1l-6.8.2zm-.3-2.5c2.5 0 4.7 0 7-.2a6.3 6.3 0 006.1-5c.3-1.4.3-2.9.4-4.4a363.1 363.1 0 000-8.1v.3c0-1.5 0-3-.4-4.5C28.7 6.2 28 5 27 4.2a6.9 6.9 0 00-4-1.5 108.8 108.8 0 00-14 0 6.3 6.3 0 00-6.1 5c-.3 1.4-.3 2.9-.4 4.4V20c0 1.4 0 3 .4 4.4C3.3 25.8 4 27 5 27.8c1.2 1 2.5 1.4 4 1.5l7 .2zm0-5.7a7.8 7.8 0 110-15.6 7.8 7.8 0 010 15.6zm0-13.1a5.3 5.3 0 100 10.6 5.3 5.3 0 000-10.6zm8.6-5a1.9 1.9 0 100 3.7 1.9 1.9 0 000-3.7z"/>
</symbol>
<symbol id="icon-facebook" viewBox="0 0 19 32"><path d="M16.7 0h-4.2C7.8 0 4.8 3.1 4.8 7.9v3.6H.7c-.4 0-.7.3-.7.7v5.2c0 .4.3.7.7.7h4.1v13.2c0 .4.3.7.7.7H11c.4 0 .7-.3.7-.7V18.1h4.9c.3 0 .6-.3.6-.7v-5.2c0-.4-.3-.7-.6-.7h-5v-3c0-1.5.4-2.3 2.4-2.3h2.8c.3 0 .6-.3.6-.7V.7c0-.4-.3-.7-.6-.7z"/></symbol>
<symbol id="icon-clock" viewBox="0 0 32 32"><path fill="var(--color2, #674d40)" d="M16 0a16 16 0 100 32 16 16 0 000-32zm0 31a15 15 0 110-30 15 15 0 010 30z"/><path fill="var(--color2, #674d40)" d="M16.5 13.9V8.5c0-.3-.2-.6-.5-.6s-.5.3-.5.6v5.4c-.8.2-1.4.8-1.6 1.5h-3.8c-.3 0-.5.2-.5.5s.2.6.5.6H14a2.1 2.1 0 102.6-2.6zM16 17a1 1 0 110-2.1 1 1 0 010 2.1zm0-11.7c.3 0 .5-.3.5-.6v-.5c0-.3-.2-.5-.5-.5s-.5.2-.5.5v.5c0 .3.2.6.5.6zm0 21.3c-.3 0-.5.2-.5.5v.6a.5.5 0 101 0V27c0-.3-.2-.5-.5-.5zm11.7-11.2h-.5a.5.5 0 100 1h.5a.5.5 0 100-1zm-22.9 0h-.5a.5.5 0 100 1h.5a.5.5 0 100-1zm19.1-8.1l-.4.3-.1.4.1.4.4.1.4-.1.4-.4a.5.5 0 00-.8-.7zM7.7 23.5l-.4.4-.1.3.1.4.4.2.4-.2.4-.4.1-.3a.5.5 0 00-.9-.4zm16.6 0a.5.5 0 00-.8 0l-.1.4.1.3.4.4.4.2.4-.2.1-.4-.1-.3-.4-.4zM8.1 7.3L7.7 7c-.2 0-.3 0-.4.2l-.1.3.1.4.4.4.4.1.4-.1.1-.4-.1-.4-.4-.3z"/></symbol>
<symbol id="icon-chefhat" viewBox="0 0 35 32"><path fill="var(--color2, #674d40)" d="M25 8.5a.5.5 0 01-.4-.5 7.2 7.2 0 00-14.4 0 .5.5 0 01-1 0 8.1 8.1 0 0116.3 0c0 .3-.2.5-.5.5z"/><path fill="var(--color2, #674d40)" d="M26.5 19.6c-.2 0-.3 0-.4-.2l-.1-.3.1-.4.4-.1c3.8 0 7-3.1 7-7 0-4-3.2-7-7-7h-.1c-.8 0-1.5 0-2.2.3a.5.5 0 01-.2-1 8 8 0 0110.6 7.7c-.1 4.4-3.7 8-8.1 8zm-18.2 0c-4.4 0-8-3.6-8-8a8 8 0 018-8h.1c.9 0 1.7 0 2.5.3.1 0 .3.3.3.5a.5.5 0 01-.7.5c-.6-.2-1.3-.4-2-.4h-.1c-4 0-7.1 3.2-7.2 7 0 4 3.2 7 7.1 7.1l.4.1a.5.5 0 010 .7l-.4.2z"/><path fill="var(--color2, #674d40)" d="M26.5 31.8H8.3a.5.5 0 01-.5-.5V19c0-.3.2-.5.5-.5s.5.2.5.5v11.7H26V19l.1-.4a.5.5 0 01.9.4v12.2c0 .2-.3.5-.5.5z"/><path fill="var(--color2, #674d40)" d="M29.9 27H11.7a.5.5 0 01-.3-.8l.3-.2H30a.5.5 0 010 1z"/></symbol>
<symbol id="icon-chat" viewBox="0 0 47 32"><path fill="var(--color2, #674d40)" d="M36 13.8C36 5.5 27.2 0 18.4 0 9.5 0 .8 5.5.8 13.8c0 3.2 1.3 6.3 3.8 8.7.1.1.2.3.1.4-.7 2.9-2.6 5.5-3.4 6.5a1 1 0 000 1c0 .4.4.6.8.6 3.8-.1 8.1-1.2 10.8-3.8a.4.4 0 01.4-.1c1.6.4 3.3.6 5 .6 8.9 0 17.7-5.5 17.7-13.9zm-22.4 12c-.6-.1-1.2 0-1.6.4-2.7 2.7-7.1 3.3-9.2 3.4 1-1.3 2.5-3.7 3.2-6.4.2-.6 0-1.2-.4-1.6A10.7 10.7 0 012 13.8C2.1 7 9.4 1.3 18.4 1.3S34.6 7 34.6 13.8c0 7-7.3 12.5-16.2 12.5-1.7 0-3.3-.1-4.8-.5z"/><path fill="var(--color2, #674d40)" d="M40.3 25c4-2 6.2-5.4 6.2-9 0-5.2-4.6-9.6-11-10.5h-.2a.7.7 0 000 1.3c5.7.8 9.9 4.7 9.9 9.2 0 3.1-2 6-5.5 7.8a1.7 1.7 0 00-.9 1.8c.3 1.5 1 3 1.6 4-4-.7-5.5-2.6-6-3.4-.2-.6-.8-.9-1.4-.9a16 16 0 01-2.3-.1c-.4 0-.6.2-.7.5a.7.7 0 00.6.8l2.4.2.3.1c1.8 3.2 6 4 7.7 4.2h.1c.4 0 .7-.2.8-.5a1 1 0 000-1 13.3 13.3 0 01-1.8-4.2c0-.2.1-.3.2-.3zM7.9 11.4a2.3 2.3 0 100 4.7 2.3 2.3 0 000-4.7zm0 3.4a1 1 0 010-2c.6 0 1 .4 1 1 0 .5-.4 1-1 1zm6.7-3.4a2.3 2.3 0 100 4.7 2.3 2.3 0 000-4.7zm0 3.4a1 1 0 010-2c.5 0 1 .4 1 1 0 .5-.5 1-1 1zm6.6-3.4a2.3 2.3 0 100 4.7 2.3 2.3 0 000-4.7zm0 3.4a1 1 0 010-2c.5 0 1 .4 1 1 0 .5-.5 1-1 1zm6.6-3.4a2.3 2.3 0 100 4.7 2.3 2.3 0 000-4.7zm0 3.4a1 1 0 010-2c.6 0 1 .4 1 1 0 .5-.4 1-1 1z"/></symbol>
</defs>
</svg>

